# xmcd CD database file
#
# Track frame offsets:
#	150
#	16056
#	25864
#	40802
#	62743
#	74131
#	98617
#	111544
#	120947
#	142818
#	157131
#	178944
#	200960
#	214755
#	230866
#	242964
#	252139
#
# Disc length: 3541 seconds
#
# Revision: 0
# Processed by: cddbd v1.5.2PL0 Copyright (c) Steve Scherf et al.
# Submitted via: CDex 1.70beta2
#
DISCID=fd0dd311
DTITLE=Albin Brun - NAH-AUFNAHMEN
DYEAR=2006
DGENRE=Jazz
TTITLE0=01 Laengi Zyt
TTITLE1=02 De Haslibaerger
TTITLE2=03 XEUVSAB I gseh uf aues abe
TTITLE3=04 Jungle Bells 
TTITLE4=05 Ae Sibnaer 
TTITLE5=06 Starrewang
TTITLE6=07 Vals 
TTITLE7=08 Sydisch aeifach aa
TTITLE8=09 Shovidar Nosoajne
TTITLE9=10 Valse Violette
TTITLE10=11 Vista Sul Mare 
TTITLE11=12 Schnee
TTITLE12=13 In Medias Rees 
TTITLE13=14 Geamparalele din Birlad
TTITLE14=15 Zwitterpartie 
TTITLE15=16 Musette Livio 
TTITLE16=17 Schlaflied 
EXTD=YEAR: 2006
EXTT0=
EXTT1=
EXTT2=
EXTT3=
EXTT4=
EXTT5=
EXTT6=
EXTT7=
EXTT8=
EXTT9=
EXTT10=
EXTT11=
EXTT12=
EXTT13=
EXTT14=
EXTT15=
EXTT16=
PLAYORDER=
